<?xml version="1.0" encoding="UTF-8"?>
<svg version="1.1" viewBox="0 0 1128 1128" width="3rem" height="3rem" xmlns="http://www.w3.org/2000/svg">
<path transform="translate(0)" d="m0 0h1128v1128h-1128z" fill="#F087A1"/>
<path transform="translate(768,88)" d="m0 0h10l7 3 7 6 4 6 2 7-2 10-5 9-16 24-7 11h-2l-2 5-12 18-17 25-10 14-5 9-4 5-1 2h-2l-1 4-8 11-3 5-9 14h-2l-2 4-9 13-3 6 21 1h38l69 1h131l36 1 3 1v2l5 1 1 27v146l-2 7h-3l-4-4-2-1-4 4-9 3-1 2 15-1 2-1 1-2 5 1-3 8v10l1 14v28l-1 3-7 3h-12l-2-25-2-11-1-9h-3v26l-1 1-1 9 2 1 2 6 1 2-1 2h2l3 13-1 4 1-1 24-1 23 2 3 1 1 2 1 23 1 42v101l-2 2h-35l-1 15 10 1 1 2v86l-1 43-1 9-5 8-9 2-29 1-46 1-1 6-6 17-7 14-9 11-12 10-15 7-10 3h-17l-10-3-11-5-8-5-9-8v-2h-2l-7-10-4-7-5-10-2-5-3-12 1-2h-119l-6-1-5 1h-20l-33-1-2-1-1 2-10-1h-13l-4-1-3 1h-56l-23 1-6-1-11 1-48 1-4 16-6 13-7 12-4 5h-2l-2 4-14 10-14 6-10 2h-15l-13-4-14-7-11-10-10-14-5-10-6-17-1-7h-41l-58-1-3-1v-2l-3-1-1-8-1-37-1-20v-139l3-3v-11l-2-22-1-22-9-74-7-52-9-58-8-44-5-21 1-5 35-15h2v-8-2l-1-25 1-18 2-12-1-3 2-2 2-1 13-1 42-1 227-1 33-1 1-1-32-17-16-8-14-8-8-4-16-9-12-6v-2l-5-1-14-8-15-8-28-17-3-1v-2l-5-2-7-8-1-4v-9l5-9 5-6 11-5h8l27 14 14 8 12 6 16 9 23 13 11 6 29 16 16 9 11 6 17 10 11 6 20 11 21 12 13 6 10 3 7 1h31l7-1 2-4 3-3 4-7 6-8 11-17 22-33 5-7 3-5 6-9 11-16 10-14 10-15 1-2h2l2-5 22-32 8-12 10-14 7-6z" fill="#F187A1"/>
<path transform="translate(110,402)" d="m0 0h2l5 23 11 65 9 63 10 80 1 10 1 22 2 22v11l-2 3h-2l1 58v85l1 26 1 30 1 5 2 1v2l72 1 30 1 9 27 6 10 10 13 10 8 12 6 13 4h15l12-3 13-6 10-7 5-5h2l2-4 7-11 5-10 7-21 13-1 35-1 14-1 4 1 31-1h49l2-1 7 1h15l4 1 3-1 46 1h9l4-1 7 1h114l3 1 1 6 4 13 7 14 7 10 1 3h2l5 6 8 6 10 5 7 3 8 2h17l15-5 11-6 11-9 10-13 7-16 6-18 5-1 49-1 21-1 9-2 4-7 1-9 1-58v-73h-8l-2-1v-15l2-1h37l-1-123-1-44 5-1 4 3 2-1v-3l-2-1 1-2-1-4 5-5h2l3 6v4l4-1v4l3 1-1 2h-4v4h-2l2 4-3 3 2 2v5l3 1-1 2 7-4 2-6 3-3 4 1 4-3 3-1 1-2 3 1h-2l2 4 2 1v-2h2v-2l9-1 1-3 7-2 7 3 3 2v-2l3-3 1-2 5 2 2 7 4-2v2h2l3 3 2-4 1-4 3 3v5l5 4 5 2 2 4 3 2v530h-1128v-513l3-3 3-17v-8h2l-1-4 2-4h3l-2-4 2-2 6-1v2l4 1 1 4 8-4 1-4-3-2v2l-5-1v-4h3l-4-2h-3l-3 3-5 1-1-3-2-3h3l5-3h4l2-2 5 4 2 2 3-1 1-2 6 2 3 5v2l-8 1 2 7 9-1h2v-4l3-1 4 3 7 1 1-2 4 1 1 3 4-1 3-3v-3l3-2v2l5 2v-6l5-1 3 3-1 5 2 1-1-3 7-1 1-2v2h4l2-4 3 1 1 4 3 4 1 1h5l3 5h-2l2 4h8l-1-6 3-3-2-9 1-7-1-4 1-5-1-2-1-9-1-5v-8l-1-9-2-7v-10l-4-24-5-31-5-26-2-11v-5h2z" fill="#D35476"/>
<path transform="translate(703,438)" d="m0 0 12 1h124l3 7 4 4-2 1-1 2-1 5v12l2 2h-2l1 7v3h-5v2l-4 2 7 46 2 14 20 1 2 10v6l-13 2h-11l-2-7-2-1 1-3v-3h-2l-2-7-1-12 1-9-3-1v-7h-2l-4-28-20 3 3 17 8 42v2l8-2h10l2 12 4 5-1 1-15 2h-7l8 36 7 37 10 52 8 41v2l25-2 11-1v-12l-1-17v-20h2l1-7 2-6 1-7 1-3h2l-1-8 1-4v-25l-2-2v-8l-1-4v-11l1-9-2-7-2-23v-14l2-2 3 22 6 56 2 25 1 3 2 25 4 36v9h19l16 2 1 1 1 13-1 2h-10l1 68v56l-2 1-51 1-191 1h-90l-7-1-1 2v-2h-2v2l-9-1h-7l-2 1-2-1-2 2-2-2h-21l-5-1-1 2v-2l-4 1h-19l-3-1-1 2-4-1-19-1-1 2-2-1-22-1-6 1-1-1h-20l-4 1-4-1h-229l-7-1-1-10v-71l-35-1-1-1v-14l1-1 32-1 24-2 15-2 1-1 17-2h5v-2l13-2 8-3 12-3 8-4 12-4 12-7 6-1v-2l14-9 11-9 8-9 4-6h2l1-6 3-9v-11l-4-8-4-5-14-10-5-3-4-4-9-4-13-5-16-6-9-2-1-3 4-2 1-3-1-5v-20l2-7v-3h2v-5l-2-2 2-12 5-1h2l1 2 3 1v2l6-1 5 2 2 3h1v6l-1 2 2 7h5l2 4 7 2 1 3 4 1 1 1h8l7 5 2-6 4-6 4 1 11 56 7 37 10 51v3l26-2 2-1h9l-7-70-1-15-1-5-1-14-3-19-1-18 5 4 2 5 1 9 2 6 4 5 1 3 3 1v11l-2 4-1 13 3 4 2 12 2 10h4l2 2 3 4 2 11 2 17v7h21l1 1 14 1 4 5 15 2 5-1h2l1 12 1 1h37v-25l2-4 9-6 2-1 4 1 1 3 3 1 1 3 14 7 10 6 9 1 3 2 1 16h2l2 18h46l29-4 7-2h9v-2l21-4 4-2 9-2 6-3 8-3 9-4 9-5 6-1v-2l16-10 8-7h2l2-4 9-12h2l4-16v-10l-4-8-9-9-17-10-20-9-24-8-22-5-15-3-18-2-26-1-19 1-2-6-5-57-2-23-2-34v-57h20z" fill="#DD6889"/>
<path transform="translate(768,88)" d="m0 0h10l7 3 7 6 4 6 2 7-2 10-5 9-16 24-7 11h-2l-2 5-12 18-17 25-10 14-5 9-4 5-1 2h-2l-1 4-8 11-3 5-9 14h-2l-2 4-9 13-3 6 21 1h38l69 1h131l36 1 3 1v2l5 1 1 27v146l-2 7h-3l-4-4-2-1-4 4-9 3-1 2 15-1 2-1 1-2 5 1-3 8v10l1 14v28l-1 3-7 3h-12l-2-25-2-11-1-9h-3v26l-1 1-1 9 2 1 2 6 1 2-1 2h2l3 13-1 4 1-1 24-1 23 2 3 1 1 2 1 23 1 42v101l-1 1h-34l-2-7-10-106-4-41-8-6-1-9-3-10-1-3-1-9-1-5-1-11-1-2-1-11v-30l1-7-2-8 1-10v-7l-2-10v-12l-2-14-1-26v-52h-263l-97 1h-50l-162-1h-103l-47 1-11 1h-8v26h-2v4h-2v6l4 10-1 6 1 3-1 17-1 13 1 3-1 5v9l-1 6v9l-2 7h-2v5l-1 4-1 15 1 29 1 11 1 27 5 53 17-1h13l26 2 29 5 25 7 21 8 16 7 11 7 9 7 6 8 2 5v11l-5 15h-2l-2 4-8 10-10 9-15 10h-2v2l-9 4-11 6-15 5-3 2-19 5-1 1-13 1v2l-22 3-1 1-23 3h-47l-1-1-2-29-10-102-12-95-11-73-9-50-5-21 1-5 35-15h2v-8-2l-1-25 1-18 2-12-1-3 2-2 2-1 13-1 42-1 227-1 33-1 1-1-32-17-16-8-14-8-8-4-16-9-12-6v-2l-5-1-14-8-15-8-28-17-3-1v-2l-5-2-7-8-1-4v-9l5-9 5-6 11-5h8l27 14 14 8 12 6 16 9 23 13 11 6 29 16 16 9 11 6 17 10 11 6 20 11 21 12 13 6 10 3 7 1h31l7-1 2-4 3-3 4-7 6-8 11-17 22-33 5-7 3-5 6-9 11-16 10-14 10-15 1-2h2l2-5 22-32 8-12 10-14 7-6z" fill="#F49AAF"/>
<path transform="translate(633,362)" d="m0 0 4 1v31h138l37 1h32l18 1 13 2 3 1 2 10 24-2h14l1 1 3 37 7 101 7 81 7 84v11h-16l-19-1-6-55-1-15-1-6-4-44-3-23-3-28-1-3v14l1 16 1 9 2 7-1 8v11l1 7v4l2 2v26l-1 5v6h-2l1 3h-2v7l-4 13-1 4v16l1 17v12l-1 1-19 2h-17l-3-13-14-71-8-41-5-25-3-12v-6l22-3-4-5-1-5v-7l-13 2h-5l-3-12-8-41v-8l9-2 11-1 2 8 2 14v6h2l1 7 2 1v10l1 11 1 7h2l1 5v2l2 6h11l5-1h8l-2-16h-20l-2-6-6-43-2-13 5-1v-2l4-1v-3-7l-1-1v-16l4-4-3-3-2-4-1-3h-125l-11-1-49 2h-11l-6-1 1 57 3 47 5 53 1 14 1 5 29-1 26 2 18 3 23 5 23 7 23 10 16 9 10 9 6 8 1 3v10l-4 14-1 2h-2l-2 4-9 12-9 7-15 10h-2v2l-9 4-9 5-6 2-8 3-9 4-9 2-1 1-15 3h-6v2l-15 2-1 1-29 4h-46l-1-1-4-39-7-77-8-67-10-74-11-67-7-37-3-9v-4l25-11 31-13z" fill="#F3F7FA"/>
<path transform="translate(175,362)" d="m0 0h5v90l2 44 4 56 6 64 17-1h13l26 2 29 5 25 7 21 8 16 7 11 7 9 7 6 8 2 5v11l-5 15h-2l-2 4-8 10-10 9-15 10h-2v2l-9 4-11 6-15 5-3 2-19 5-1 1-13 1v2l-22 3-1 1-23 3h-47l-1-1-2-29-10-102-12-95-11-73-9-50-5-21 1-5 35-15 27-11z" fill="#F3F7FA"/>
<path transform="translate(636,371)" d="m0 0h1v23h138l37 1h32l18 1 13 2 3 1 2 10 24-2h14l1 1 3 37 7 101 7 81 7 84v11h-16l-19-1-6-55-1-15-1-6-4-44-3-23-3-28-1-3v14l1 16 1 9 2 7-1 8v11l1 7v4l2 2v26l-1 5v6h-2l1 3h-2v7l-4 13-1 4v16l1 17v12l-1 1-19 2h-17l-3-13-14-71-8-41-5-25-3-12v-6l22-3-4-5-1-5v-7l-13 2h-5l-3-12-8-41v-8l9-2 11-1 2 8 2 14v6h2l1 7 2 1v10l1 11 1 7h2l1 5v2l2 6h11l5-1h8l-2-16h-20l-2-6-6-43-2-13 5-1v-2l4-1v-3-7l-1-1v-16l4-4-3-3-2-4-1-3h-125l-11-1-49 2h-11l-6-1v31h-1z" fill="#F49AAF"/>
<path transform="translate(450,407)" d="m0 0h10l3 2 2 28 1 3h22l39-1h12l10-1 7 1 9-1 2-9 1-5h1l8 54 1 10 1 2v3l1 15 1 9h2v4l1 14-1 7 1 5 2 14v3 10l2 4-1 4 1 5-8 1-2-5 1-4v-5h-2v-2h-9l-4-8h-3v-3l-2 1-2 11 1 8-2 4h-3v45l1 25v30l-1 31-1 7v18l-4 2h-32l-2-2-1-11-5-1-1 2-15-2-4-5-14-1-1-1-19-1-1-1-4-40-8-82-8-64-8-60-7-43-3-12v-7l14-3z" fill="#F188A1"/>
<path transform="translate(201,790)" d="m0 0 5 2 1 7-2 5 2 1 1 6 2 1-1 5 1 2 5 1-1 4v2l3 2-1 2h2l1-2 8-1 3 1 2 2 1 3h5v-2h5l2 4 3 1v-2l3 1 8-1v2l2-2 9-1 1-5h2l2 5 4 1 1-4h5l1 4h2l2-5 10 1v-7l3-3 1 2 5-1 4 1 3-1 2 1v-4h52 3 26l1-2h64l7-1h53l5 1 2-1h30l29 1h102l23 2h26 3l16 2v-2l5 1v2h7l3 1v-2h5v-2h5v3l1 1 1-2 8-2 1 3 3-1 1-2 3 1h4l2 2 4-3h2l-1 3h2l2-2h7l3 1v-2h2v2l2 1v4h5l5-1v4l4-1 2-4 4-1 3 3 1-3 9-1 10-2v-2l12-1 2 3h7l2-6 1 3h2l1 4 8-1 3 3 2 4 4-2 2 10 2 1v2h2v2l4 1 3 9v5h-2l3 3 1 6-1 1-51 1-191 1h-90l-7-1-1 2v-2h-2v2l-9-1h-7l-2 1-2-1-2 2-2-2h-21l-5-1-1 2v-2l-4 1h-19l-3-1-1 2-4-1-19-1-1 2-2-1-22-1-6 1-1-1h-20l-4 1-4-1h-229l-6-2-1-6 1-25-1-13 1-16v-10l2-2z" fill="#D35476"/>
<path transform="translate(839,726)" d="m0 0 3 1 2 2 4 19v6l29-3h10v32l-2 23-3 7-14 2-34 2h-254l-29-1h-21l-2 1-5-1h-55l-5 1h-193l-14-1-4-1-1-2-4-2-4-9-2-10-1-11-1-5 38-9 11-3 1 4 20 1h303l2 6v7l35-1 24-2 36-6 26-6 4 1 32 1h32l36-1 1-25-1-10z" fill="#F086A0"/>
<path transform="translate(110,402)" d="m0 0h2l5 23 11 65 9 63 10 80 1 10 1 22 2 22v11l-2 3h-2l1 58v85l1 26v26h-1l-2-20-1-16 1-2-3-1 1-2h1v-17l1-7-3-1h2l-1-8 1-6-3-1-1-9-3 2 2 6v6l-4-1-1-6h-2l-1-4 1-7-5-4-6 1h-2l-1 2-1-5 4-4 3-1v-2h-4l-5 1h-4v-2h-2l2-4h2v-3l-4-1 1 4h-2v2l-3-1v-3l-1-2 1-5h2l-2-4-5 2-3-1-2 4-2 2-4-1-4 2-4-1 4-6-7 2-2-7h4l-6-2 3-3 1-2-4 2-3-1v-2l5-1-1-4h-3l1-2h-2v-2h-2v-2l-4 2 1 7-3 1-4-2v-4h-2l-1 2-5-6-1 2-7 2v-2l-6-3h-2l-2-2-6-1v3l3 1-4 1-6-1 2-1-2-4h-2v7l-4 10-1 2h-3v2h-3v5l-1-3h-2l-3 9-2 1v-161l3-3 3-17v-8h2l-1-4 2-4h3l-2-4 2-2 6-1v2l4 1 1 4 8-4 1-4-3-2v2l-5-1v-4h3l-4-2h-3l-3 3-5 1-1-3-2-3h3l5-3h4l2-2 5 4 2 2 3-1 1-2 6 2 3 5v2l-8 1 2 7 9-1h2v-4l3-1 4 3 7 1 1-2 4 1 1 3 4-1 3-3v-3l3-2v2l5 2v-6l5-1 3 3-1 5 2 1-1-3 7-1 1-2v2h4l2-4 3 1 1 4 3 4 1 1h5l3 5h-2l2 4h8l-1-6 3-3-2-9 1-7-1-4 1-5-1-2-1-9-1-5v-8l-1-9-2-7v-10l-4-24-5-31-5-26-2-11v-5h2z" fill="#DD6889"/>
<path transform="translate(703,438)" d="m0 0 12 1h124l3 7 4 4-2 1-1 2-1 5v12l2 2h-2l1 7v3h-5v2l-4 2 7 46 2 14 20 1 2 10v6l-13 2h-11l-2-7-2-1 1-3v-3h-2l-2-7-1-12 1-9-3-1v-7h-2l-4-28-20 3 3 17 8 42v2l8-2h10l2 12 4 5-1 1-15 2h-7l4 18-1 4v-3h-7l1 4v17l-5-3v-2h-6l-4-1-14 7-1 1h-6l-3-2-7-1v-2l-8-2v-2l-4-1-10-5-5-2v-2l-4-2-5-2v-2h-3v-2l-10-2v-2l-7-1-7-2-9-2-6-4h-6l-3-1-4 1-2 5h-2v5l-1 1h-5l-1 2-2-6h-2l-1-4-2-2 2-1-1-3h-3l1 5v6l-2 7-1 4h-2l2 5 3-1 1 4 2 3 7 3v5l8 2 3-1v2h18v2l20 2 15 4 10 2 12 3 9 3 16 7 6 1 1 2 12 6 12 8 10 10 4 7v14l-2 2v-14l-4-8-9-9-17-10-20-9-24-8-22-5-15-3-18-2-26-1-19 1-2-6-5-57-2-23-2-34v-57h20z" fill="#F187A1"/>
<path transform="translate(1021,561)" d="m0 0h2l3 6v4l4-1v4l3 1-1 2h-4v4h-2l2 4-3 3 2 2v5l3 1-1 2 7-4 2-6 3-3 4 1 4-3 3-1 1-2 3 1h-2l2 4 2 1v-2h2v-2l9-1 1-3 7-2 7 3 3 2v-2l3-3 1-2 5 2 2 7 4-2v2h2l3 3 2-4 1-4 3 3v5l5 4 5 2 2 4 3 2v206h-2l-1-5 1-6-3 1-5-3-1 3-6-10v-2l-10-1-2 1-5-2h-3v2h-2v-4-2l-2-1 1-3h2l3 4 1-2-1-3 4-6 2 1-1-4 4-2-1-3-5-2-3 1-3-3 1-3h-3l-2-1-4-3-1-3-3 1h2v8h-2l-1 2h-3l-2-4-4 2 1 9-4 1-2-4h-5l-4-2v2l-7 1-1 2h-2v2l-4-1-5-1v2l-6 1-3 3h-3l1-5h2l2-4-3-4v-6l-5-1-1-2-4-1v-2l4 1v-2h-2v-9l-5-10-1-1v21h-2l-1-123-1-44 5-1 4 3 2-1v-3l-2-1 1-2-1-4z" fill="#DC6788"/>
<path transform="translate(889,545)" d="m0 0h1l3 22 6 56 2 25 1 3 2 25 4 36v9h19l16 2 1 1 1 13-1 2h-10l1 68v56l-2-3-3-4 1-7-3-9-3-1v-2h-2v-2l-3-1-1-2v-8l-2 3-4-2-3-5-6 1-3-3v-2l-3-1-2 4-9 1-1-3h-11v2l-6 2-4 1h-9l-1 4-3-2v-2l-4 1-1 4-3 2-5-4-7 1-2-3v-3-2h-2v2l-3 1-5-1h-3l4 2-5 1-5-1 4-4-5 3-2 2-2-4-5 1h-1v2h-5l-1-3-5 2-2 1-1 2v-2l-3 1v-2l2-2-5-1v2h-5v2h-11l1-3-5-1v2h-9l-7-1h-3l-2-1-1 2v-2l-9 1h-15l-9-1v-1l12-1h118l33-2 14-2v-3h2l2-31 1-27-30 3h-9l-5-25-4-3 2 21-1 21-1 1-50 1h-26l-24-1-4-1-17 4h-6v-1l16-4 16-5 20-9 16-8 16-11 3-1v-2l8-7 9-11 5-13 1-9h-2l1-6h2v-16l-6-9-8-8-20-12-6-3-13-5-7-3-9-3-12-3-18-4-7-2-18-2-3-2h-18v-2l-3 1-10-2 2-4v-2l-7-3-3-5-3-1-1-5h2l1-10 1-1v-10-3l5 5v3 4l3-1 1 5 6-1 1-5 2-1 2-5 5-1 5 1 4 1 6 3 10 2 5 2 7 2 8 3 2 1v2l5 1 7 5v2l5 1 22 11v2h7l3 2h6l5-3 10-5 10 2v2l4 1v-19l3-1 4 1v3h2l7 36 13 67 8 41v2l25-2 11-1v-12l-1-17v-20h2l1-7 2-6 1-7 1-3h2l-1-8 1-4v-25l-2-2v-8l-1-4v-11l1-9-2-7-2-23v-14z" fill="#DD6889"/>
<path transform="translate(379,394)" d="m0 0h91l41 1 24-1h25l5 3v16h2l1 6v11l-2 8-5 1-9 1-5-1-11 1h-21l-32 1-17-1v10h-1l-3-41-2-1h-10l-21 2-14 2-1 13h-2l-1 10-1 4h-58l-16 1h-48l-1 29-1 2h-2l-1 3h-2l-1 5-2 1-6-8 1-1-2-1-1-2-5 1-4-2-5-5-2-4 1-5-4 1-1 4 2 10-3 4v8l-2 3h-3l-1-11v-19l-1-8-1-14 1-22 2-7 3-1v-4l3-1 74-1z" fill="#F49AAF"/>
<path transform="translate(904,407)" d="m0 0h14l1 1 3 37 7 101 7 81 7 84v11h-16l-17-1-1-1-5-51-6-60-8-69-9-65-8-50-2-8v-5l7-2z" fill="#F3F8FB"/>
<path transform="translate(450,407)" d="m0 0h10l3 2 12 162 11 129 1 10v12h-14l-19-1-1-1-4-40-8-82-8-64-8-60-7-43-3-12v-7l14-3z" fill="#F3F8FB"/>
<path transform="translate(889,545)" d="m0 0h1l3 22 6 56 2 25 1 3 2 25 4 36v9h19l16 2 1 1 1 13-1 2h-10l1 68v56l-2-3-3-4 1-7-3-9-3-1v-2h-2v-2l-3-1-1-2v-8l-2 3-4-2-3-5-6 1-3-3v-2l-3-1-2 4-9 1-1-3h-11v2l-6 2-4 1h-9l-1 4-3-2v-2l-4 1-1 4-3 2-5-4-7 1-2-3v-3-2h-2v2l-3 1-5-1h-3l4 2-5 1-5-1 4-4-5 3-2 2-2-4-5 1h-1v2h-5l-1-3-5 2-2 1-1 2v-2l-3 1v-2l2-2-5-1v2h-5v2h-11l1-3-5-1v2h-9l-7-1h-3l-2-1-1 2v-2l-9 1h-15l-9-1v-1l12-1h118l33-2 14-2v-3h2l2-31 1-27-30 3h-9l-4-20-1-9-3-9-2-11-3-10-1-10-2-6-1-11v-3l1-2h4l13 66 1 8 25-2 11-1v-12l-1-17v-20h2l1-7 2-6 1-7 1-3h2l-1-8 1-4v-25l-2-2v-8l-1-4v-11l1-9-2-7-2-23v-14z" fill="#DD6888"/>
<path transform="translate(856,565)" d="m0 0 9 1 2 2 4 22 5 41 7 64 2 22v17l-18 3h-17l-3-13-14-71-8-41-7-35v-5l21-4z" fill="#F3F7FA"/>
<path transform="translate(393,566)" d="m0 0h15l3 2 5 33 6 49 8 78v5l-1 1-17 3h-18l-4-17-8-42-14-73-6-28v-5l22-4z" fill="#F3F7FA"/>
<path transform="translate(968,572)" d="m0 0h22l15 2 1 1 1 23 1 42v101l-1 1h-34l-2-7-10-106-4-41v-14l1-1z" fill="#F3F8FB"/>
<path transform="translate(510,573)" d="m0 0h33l6 2 1 10 2 53v103l-2 1h-33l-2-5-3-35-5-50-3-35-3-30v-13z" fill="#F3F8FB"/>
<path transform="translate(591,543)" d="m0 0h1l5 38 8 67 8 86v12h-1l-2-16-2-1-9-1-10-6-10-5-5-3v-3l-4-1v-3h-5l-8 6-2 1-1 3-1 25-3-1h2l-1-23 1-2 1-31v-30l-1-25v-21h2l1 7v5l2 3 5-2 8-3 10 6v3h3v3h2l3 8 3 1 2 6v15l1 3 3 1 2 10 5 7 2 1-4-39-4-35-5-42-2-15z" fill="#F187A1"/>
<path transform="translate(566,403)" d="m0 0h3l11 60 9 58 2 14 1 19 4 28 5 47 4 33 1 21-3-1-6-9-1-6 1-2-4-1-1-7v-11l-2-6-3-1-2-4v-4h-2v-3h-3v-3l-6-2-5-3-10 5-3-1-2-2v-11l-1-2-1-22 3-3 2-3-1-9 2-10 3-1v3l3-1 3 4 2 4h6l2 1v2h2l1 5-1 5 1 4 7-2-1-5h2l-3-7v-10-3l-2-17-1-4 1-6v-13l-2-1 2-3h-2l-2-9v-7l-1-6 1-2-2-1 1-3-1-3-3-22-9-60z" fill="#DD6989"/>
<path transform="translate(157,767)" d="m0 0h1l1 14 34-1 32-3 18-3 4 1-8 1 2 6 2 18 4 9 1 2 4 2v2l28 1h117l2 2-26 1-3 1v-2l-9 1h-38l-5-1v4l-6 1-5-1-5 1v-2l-1 7-1 3-10-1-2 5-3-1v-4l-5 1-1 3-5-1-1-5h-2v6l-9 1-3 1v-2l-10 2h-1l-4-1-2-2-4-2v2h-5l-3-3v-2h-8l-6 2-2-4-2-1 2-3-1-2-4-1-1-4 2-3-3-1v-6l-3-1 2-5v-7l-5-1-5 2v16l-1 11 1 14-1 29 2 1h-3l-1-10v-71l-35-1-1-1z" fill="#DC6788"/>
<path transform="translate(870,423)" d="m0 0h3l2 8 10 64 8 62 9 81 7 73 1 10h-2l-6-55-1-15-1-6-4-44-3-23-3-28-1-3v14l1 16 1 9 2 7-1 8v11l1 7v4l2 2v26l-1 5v6h-2l1 3h-2v7l-4 13-1 4v16l1 17v12l-1 1h-9v-1h8l-2-41-4-42-8-64-4-21 6-1 2 1v-7l3-3v-7l2-3 1-11-1-9-2-20 1-5-2-12-1-7-1-12-2-7-2-16-1-7-2-12 1-4z" fill="#F187A1"/>
<path transform="translate(366,689)" d="m0 0h1v8l-5 14-4 6-11 12-4 2v2l-19 13-15 8-21 9-12 4h-4v2l-20 5-27 4-32 3h-34l-1-5v-10l32-1 24-2 15-2 1-1 17-2h5v-2l13-2 8-3 12-3 8-4 12-4 12-7 6-1v-2l14-9 11-9 8-9 4-6h2v-2h2z" fill="#D72A5E"/>
<path transform="translate(821,690)" d="m0 0 2 1-1 9-5 13-9 11-7 7h-2v2l-21 14-16 8-23 10-18 5-9 1v2l-3 1-27 3-22 3-19 1h-25l-1-1-1-12 1-1 28-1 4-1 23-2 21-3 7-2h9v-2l21-4 4-2 9-2 6-3 8-3 9-4 9-5 6-1v-2l16-10 8-7h2l2-4 9-12h2l2-6z" fill="#D7295E"/>
<path transform="translate(680,658)" d="m0 0 8 1 12 3 5 2v2l11 2 8 3v2l10 2 13 5v4l-7 5-5 5-15 12-19 13-10 7h-3l-5-37-3-19z" fill="#DD6989"/>
<path transform="translate(224,658)" d="m0 0 10 1 15 5v2l8 1 8 3v2l10 2 16 6v4l-8 7-9 7-12 9-17 12-8 6-5 1-7-52z" fill="#F187A1"/>
<path transform="translate(478,590)" d="m0 0 3 4v2l3 1 4 20 4 1 2-6h2v-9l-1-9v-3l3-1 2 2 2 14 3 30 4 44-1 4h-2l-6-10-6-3v-3l-3 3-6-1-1-3-4-46-1-20z" fill="#DD6889"/>
<path transform="translate(1e3 758)" d="m0 0h7l2 2 10 1 1-2 2 8-2 4h-2l1 6h-2v5 3 3l-1 4 4-3h5 3l2 1 6-2-3-1 1-2h-2l-1-3 2-3h2v2l5 1h2l-2-1v-2l-2-1 3-1 4 2 2 4-5 5h-2v3h-4l-2 8-4-1-4 3-7 1-3 4-5-2-2-5-7 1v-7l-3 2-1 2-4 1-1-11-3-5v-6l-3-3-4 1-1 57h-1v-70l5-1 2-1z" fill="#DC6788"/>
<path transform="translate(484,667)" d="m0 0 1 3 6 1 1-3h2v3l5 1 5 6 2 6 2-1v-13l2 2 5 51 1 14 1 4 31 1v1h-32l-2-2-1-11-5-1-1 2-15-2-4-5-4-49z" fill="#F187A1"/>
<path transform="translate(853,482)" d="m0 0 4 2 6 51 1 10-1 1-20 1-2-6-6-43-2-13 5-2z" fill="#F3F8FB"/>
<path transform="translate(383,483)" d="m0 0h17l1 1 4 39 2 15v8l-20 1-2-7-6-40-2-16z" fill="#F3F8FB"/>
<path transform="translate(526,490)" d="m0 0h17l6 2v59l-1 2-19-1-2-5-1-32z" fill="#F3F8FB"/>
<path transform="translate(982,490)" d="m0 0h18l4 1 1 31v30l-4 1-17-1-1-1-1-35z" fill="#F3F8FB"/>
<path transform="translate(202,568)" d="m0 0h3l1 8 1 1 2 9 2 6 4 1 1-5 3-2 2-7v-1l7-2 4 7 4 1v9h2l1 11v3l2 7v1l-32-1-6 1h-10l2-1v-2l-2-1v-5l6-2 3 3v-4l-3-8-1-8 1-3v-9h1z" fill="#DD6889"/>
<path transform="translate(364,487)" d="m0 0h5l2 7 6 45v9l-12 3h-5l-2-7-7-36-3-17 3-2z" fill="#F3F8FB"/>
<path transform="translate(820,487)" d="m0 0h5l2 8 5 36 1 17-12 3h-5l-3-12-8-41v-8l9-2z" fill="#F3F8FB"/>
<path transform="translate(953,491)" d="m0 0h19l1 1 1 19v39l-2 2-4 1h-12l-3-42-1-19z" fill="#F3F8FB"/>
<path transform="translate(499,491)" d="m0 0h17l1 1 1 26v31l-2 3-7 1h-8l-2-16-2-27v-18z" fill="#F3F8FB"/>
<path transform="translate(375,664)" d="m0 0 3 1 2 6 3 7 11 56v3l26-2h11l2 8-2 8-20 3-8 3-9-1-3-4-3-13-2-13-2-4-1-17-3-5-1-6v-7l1-2h-2l-3-17v-3z" fill="#D75C7D"/>
<path transform="translate(1011,720)" d="m0 0 3 3 4 9-1 9h2v2l-4-1v2h5l1 3 4 1v3l2 1h-2v2l2 1 2 3-2 5h-3l-2 4-3-6h-11l-1-2-19 1-6 2-2-1v-2h-8l-2-1v-15l2-1h39l-1-4v-17z" fill="#D35476"/>
<path transform="translate(342,909)" d="m0 0 7 1 1 3-3 8-4 7-9 7-7 3-9-1-8-5-7-8-5-11v-2l9-1z" fill="#D45678"/>
<path transform="translate(800,910)" d="m0 0h47l1 2-3 7-2 5h-2l-2 4-7 6-9 4h-6l-8-5-5-5-1-3h-2l-6-12 1-2z" fill="#D45678"/>
<path transform="translate(224,658)" d="m0 0 10 1 15 5v2l8 1 8 3v2l10 2 16 6v4l-8 7h-8l-29-10v-2l-11-3-9-3-2-11z" fill="#D82E61"/>
<path transform="translate(680,658)" d="m0 0 8 1 12 3 5 2v2l11 2 8 3v2l10 2 13 5v4l-7 5-1 2-8-1-31-11-16-5-2-2-2-9z" fill="#D82D60"/>
<path transform="translate(517,552)" d="m0 0 4 2v10l-1 3 4 1-1-8 1-7 4-1 19 1 5 2v5l2 3-3 4v3l2 1-2 2-11-1h-40l-1-1-2-16 1-1z" fill="#D5587A"/>
<path transform="translate(643,568)" d="m0 0 2 4 3 27 3 2 1-9 4 3 2-1 1 4 2 3 7 3v5l8 2 3-1v2h18v2l20 2 15 4 10 2 12 3 9 3 16 7 6 1 1 2 12 6 12 8 10 10 4 7v14l-2 2v-14l-4-8-9-9-17-10-20-9-24-8-22-5-15-3-18-2-26-1-19 1-2-6-3-35z" fill="#F189A2"/>
<path transform="translate(441,598)" d="m0 0h1l12 123h-2l-4-32-3-6-2-1v-2h-2l-1 2-2-2-3-17-2-6-2-5 1-11 2-5 1-5h4v-2h-2l1-4h2l3 3-2-15z" fill="#F188A2"/>
<path transform="translate(803,503)" d="m0 0h4l9 46v2l8-2h10l2 12 4 5-1 1-15 2h-7l-1 4-3-9-3-8 1-3h-2l-1-6-3-13-1-7z" fill="#DA6281"/>
<path transform="translate(348,503)" d="m0 0 3 1 6 29 3 17 8-1h9l1 1 2 16-11 1-3 1h-7l-2-8-2-10-3-8-3-9-2-12-1-14z" fill="#DE6A8A"/>
<path transform="translate(225,670)" d="m0 0 1 3 12 3 8 3-4 1-2 4 1 6-1 12v12l1 6-4 5-5 1-7-52z" fill="#DC6788"/>
<path transform="translate(875,735)" d="m0 0h9l1 1v14l-25 2h-11l-1-5v-9z" fill="#D6275C"/>
<path transform="translate(420,735)" d="m0 0h9l1 11-1 4-23 2h-12l-2-9 1-5z" fill="#D6275C"/>
<path transform="translate(530,743)" d="m0 0h21l1 1v13l-1 1h-33l-3-2v-9l1-3z" fill="#D7255B"/>
<path transform="translate(647,503)" d="m0 0h6l8 5 1 7-2 4v2h-2l4 5 3 6-1 4h-10v-2l-3-1-1-2-5-2-3-7 1-7 3-11z" fill="#F59BB0"/>
<path transform="translate(404,513)" d="m0 0h1l2 12h4 2v-2l3-2h6l3 5-1 6h2l-1 14-6 2-3-2-3 3v2h-2v2h-4l-1-5-12-1v-1h13l-3-23z" fill="#F49AAF"/>
<path transform="translate(982,553)" d="m0 0h24l2 6-1 2 2 1-1 8-2 3-25-2v-17z" fill="#D7255B"/>
<path transform="translate(453,723)" d="m0 0h28l6 2 1 11-1 2h-17l-15-1-2-1z" fill="#D7255B"/>
<path transform="translate(992,743)" d="m0 0h16v13l-1 1-27 1-8-1v-13z" fill="#D7255B"/>
<path transform="translate(909,723)" d="m0 0h32l2 6v9h-14l-18-1-2-1z" fill="#D7255B"/>
<path transform="translate(831,663)" d="m0 0h5l13 66 1 8h7v1h-9l1 14 25-2h11v1l-28 3h-9l-4-20-1-9-3-9-2-11-3-10-1-10-2-6-1-11v-3z" fill="#D96080"/>
<path transform="translate(380,534)" d="m0 0 4 1 1 11 21 1 2 6 1 10-15 2h-8l-2-2-3-18-1-7z" fill="#D7255B"/>
<path transform="translate(830,515)" d="m0 0h1l1 7 2 1v10l1 11 1 7h2l1 5v2l2 6h11l5-1h8l1-4 4 16 5 36 5 40 4 42v12h-1l-6-56-6-51-4-26-2-5-9-1-34 6h-4l-1 3v-6l22-3-4-5-1-5v-7l-4-1h3l-3-25z" fill="#F395AB"/>
<path transform="translate(515,742)" d="m0 0 15 1v1h-14v12l2 1h33v-14h3l4 7v7l1-1h2v4l4-1 4-2 1 5-3 1 1 2h-6l-3-2-1-3-7 1v3l-1-2-6 1-4 2-14-1-13-1 1-5-2-1v-10l1-4z" fill="#D35476"/>
<path transform="translate(948,508)" d="m0 0h3l2 9 2 11 1 25h10v1h-11l1 17-1 2-2-1 1-5-2-9v-3h-2l-1-4-3-7v-10l1-1v-18z" fill="#F188A2"/>
<path transform="translate(973,552)" d="m0 0 2 1 1 17-1 1h-19l-1-7v-10z" fill="#D7255B"/>
<path transform="translate(157,767)" d="m0 0h1l1 14 34-1 32-3 18-3 4 1-8 1-1 3-3 2h-10l-12 5h-3l6 3-4 2-4 1-3-5-6 1-4-2-2-3-35-1-1-1z" fill="#D35476"/>
<path transform="translate(418,437)" d="m0 0 2 4 2 9 6 38 2 26-4-2-2-11-1-11-3-14-1-11-2-9-1-16h2z" fill="#E06E8D"/>
<path transform="translate(677,615)" d="m0 0h17l17 1 10 1 11 3 10 2 12 3 9 3 16 7 6 1 1 2 12 6 12 8 10 10 4 7v14l-2 2v-14l-4-8-9-9-17-10-20-9-24-8-22-5-15-3-18-2-16-1z" fill="#F392A9"/>
<path transform="translate(842,548)" d="m0 0h20l2 13-14 2h-7l-3-11z" fill="#D7255B"/>
<path transform="translate(528,554)" d="m0 0h20l1 10-1 5h-14l-6-3-1-10z" fill="#D7255B"/>
<path transform="translate(834,515)" d="m0 0h2l1 11 1 1 1 7 1 1 1 11 22 1 2 10v6l-13 2h-11l-2-7-2-1 1-3v-3h-2l-2-7-1-12v-15zm8 33-2 5 3 10h7l14-2-2-13z" fill="#DD6889"/>
<path transform="translate(566,403)" d="m0 0h3l11 60v16l-3-6-1-12-2-4v-6h-2l-4-27-3-20z" fill="#DA6383"/>
<path transform="translate(379,504)" d="m0 0 2 1 6 42-3-1-1-11-3-1 1 4 1 7 2 11v7h-5l-2-13-4-2h4l-2-24v-6h2l1 2v9h2l1-2v-6l-3-11v-5z" fill="#F086A0"/>
<path transform="translate(872,426)" d="m0 0 2 4 2 7 9 58v12l-3-1-2-17-3-14-2-15-2-12-2-20z" fill="#E27190"/>
<path transform="translate(368,549)" d="m0 0h9v12l-3 3-11 3-3-1-2-7v-7l7-2z" fill="#D7295E"/>
<path transform="translate(825,550)" d="m0 0h8v13l-8 3-9 1-2-8v-6l6-2z" fill="#D6255B"/>
<path transform="translate(890,540)" d="m0 0h1l10 87 8 84 1 10h-2l-6-55-1-15-1-6-4-44-3-23-3-28z" fill="#F28FA7"/>
<path transform="translate(507,554)" d="m0 0h11v12h-2l-2 4h-12l-1-1-1-13z" fill="#D7255B"/>
<path transform="translate(823,692)" d="m0 0h1l2 11h-2l-2 6-6 11-11 11h-2v2l-9 6-3 1v2l-5 2-15 9-16 7-10 4-3-1 24-11 14-7 16-11 3-1v-2l8-7 9-11 5-13z" fill="#D35476"/>
<path transform="translate(367,685)" d="m0 0 2 4-1 14-4 10-6 9-5 5-10 8-3 3-10 7h-2v2l-12 5-12 6-4-1 19-9 14-9 8-6h2v-2l8-7 8-9 5-11 2-7v-11z" fill="#D35476"/>
<path transform="translate(476,583)" d="m0 0h1l2 13 1 5 2 30 5 68 1 10v14h-14v-1h13l-7-79-4-49z" fill="#F393AA"/>
<path transform="translate(318,862)" d="m0 0 1 2h4l1-2 4 1 7 1v-2l8 1 6-1 7 1h27l2 2h-184v-1l70-1h40l7 1z" fill="#DD6889"/>
<path transform="translate(409,555)" d="m0 0 5 5 2 4-3 2 1 20h-1l-3-18-2-1h-15l-14 3-17 2 2 11-1 4-5-5-1-5 3-3 2-5 11-2 10-1 20-3h6z" fill="#F498AE"/>
<path transform="translate(416,602)" d="m0 0h1l3 14 2 14 1 14 1 5 3 34 4 43v8l-2-1-1-14-9-87-3-23z" fill="#F391A8"/>
<path transform="translate(803,503)" d="m0 0h4l2 9v5l-2 2 2 7v9l5 25-1 4-3-8 1-3h-2l-1-6-3-13-1-7z" fill="#DE6A8A"/>
<path transform="translate(451,722)" d="m0 0h23v1h-21v13l34 2-1-13-5-1v-1h7l2 10-1 6-9 2-6-2v2h-17l-6-4-1-14z" fill="#D35476"/>
<path transform="translate(982,553)" d="m0 0h24l2 6-1 2 2 1-1 8-2 3-25-2v-17zm1 1v14l5 2h16l1-7-1-9z" fill="#D5587A"/>
<path transform="translate(237,616)" d="m0 0h13l23 4 24 5 16 6 20 8 6 4-2 1-29-12-23-7-24-5-24-3z" fill="#F394AB"/>
<path transform="translate(758,628)" d="m0 0 7 1 14 6 6 1 1 2 12 6 12 8 10 10 4 7v14l-2 2v-14l-4-8-9-9-17-10-20-9-8-3v-2l-6-1z" fill="#F290A7"/>
<path transform="translate(644,562)" d="m0 0 4 1 2 5-1 5h-2v3l2 1h-2l2 6 2 4v2l2 7-1 6-5-3-3-27z" fill="#DD6889"/>
<path transform="translate(380,534)" d="m0 0 4 1 1 11 21 1 2 6 1 10-15 2h-8l-2-2-3-18-1-7zm5 14-1 7 2 7 5 1 16-2-1-13z" fill="#D75C7D"/>
<path transform="translate(438,595)" d="m0 0 2 3 3 24v6l-3-1v-2l-3-1v-3l-1-6-1-7v-5l-1-4z" fill="#DD6889"/>
<path transform="translate(501,587)" d="m0 0h1l5 51 2 22v10l-2-3-3-31-4-40z" fill="#F28FA7"/>
<path transform="translate(194,794)" d="m0 0h1l1 10-1 16 1 14-1 29 2 1h-3l-1-10v-59z" fill="#DD6889"/>
<path transform="translate(870,423)" d="m0 0h3l1 7-2-1 3 26 2 10 1 17-2-3-2-12-1-4-2-16-1-7-2-12 1-4z" fill="#F187A1"/>
<path transform="translate(972,486)" d="m0 0 6 1-3 8v10l1 14v28l-2 3-1-39-1-19-16-1v-1l14-1 2-1z" fill="#F59BB0"/>
<path transform="translate(824,549)" d="m0 0h10l2 12 4 5-1 1-15 2h-7l-1 4-2-5-1-9h2l1 8 17-4-1-11 1-2-12 1z" fill="#DA6182"/>
<path transform="translate(1006,506)" d="m0 0h1l2 16 1 7 1 3-1 2 2 1 1 8-2 3h-3l-2 2z" fill="#DD6889"/>
<path transform="translate(841,547)" d="m0 0h22l2 10v6l-13 2h-11l-2-7-2-1 1-5 1-4zm1 1-2 5 3 10h7l14-2-2-13z" fill="#D96081"/>
<path transform="translate(322,816)" d="m0 0h75l2 2-26 1-3 1v-2l-9 1h-38l-4-2z" fill="#DD6889"/>
<path transform="translate(907,722)" d="m0 0h28v1h-26v13l34 2-2-15 3 1 1 13-1 2h-25l-10-1-2-1-1-11z" fill="#D45678"/>
<path transform="translate(408,534)" d="m0 0 6 2-2 5 3 4v3l-2 1v2h-2v2h-4l-1-5-12-1v-1h13z" fill="#F498AD"/>
<path transform="translate(880,468)" d="m0 0h1l4 27v12l-3-1-2-17-2-7v-7h2z" fill="#E37492"/>
<path transform="translate(682,674)" d="m0 0 7 3v3h-2l-1 4v10l4 29 3 2-5 1-5-37z" fill="#F28CA5"/>
<path transform="translate(383,566)" d="m0 0h3v2l-7 2-17 2 2 11-1 4-5-5-1-5 3-3 2-5 11-2z" fill="#F59BB0"/>
<path transform="translate(468,815)" d="m0 0h56l4 2-8 1h-52l-4-2z" fill="#DD6889"/>
<path transform="translate(114,424)" d="m0 0 3 1 5 29v5l-3-1-5-27z" fill="#DB6383"/>
<path transform="translate(548,554)" d="m0 0 4 1v5l2 3-3 4v3l2 1-2 2-15-2 4-3 8 1z" fill="#D5597B"/>
<path transform="translate(527,552)" d="m0 0 20 1v1h-19v7l1 3-1 2 10 3-2 2-8-1-2-1-1-3-1-13z" fill="#D45779"/>
<path transform="translate(376,533)" d="m0 0h1l2 16 2 1 3 6v7h-5l-2-13-4-2h4z" fill="#F498AD"/>
<path transform="translate(973,552)" d="m0 0 2 1 1 17-1 1h-19l-1-7v-10h8v1l-6 1v14l15-2 1-1 1-13h-8v-1z" fill="#D5587A"/>
<path transform="translate(1051,760)" d="m0 0h4l1 4-2 3v3h-2l-1 2-3-1v2h-2l-3-3 1-3 1 1 3-3v-2z" fill="#DC6788"/>
<path transform="translate(226,674)" d="m0 0 2 3 5 40 1 6 3 2-5 1-6-44z" fill="#F391A8"/>
<path transform="translate(375,506)" d="m0 0h3l2 6 2 9v9l-4-1-1-9-1-2v-9z" fill="#DD6889"/>
<path transform="translate(692,82)" d="m0 0 9 3 3 3-7-1h-14l-2-2-3 2-3-1 2-2 6-1z" fill="#F59BB0"/>
<path transform="translate(377,550)" d="m0 0h1l2 16-11 1-3 1h-7l-1-2v-7l2 4 1 3 9-2 5-1 1-7v-5z" fill="#D75C7D"/>
<path transform="translate(353,528)" d="m0 0h3l3 16v5l-3-1-3-9z" fill="#DA6383"/>
<path transform="translate(758,628)" d="m0 0 7 1 14 6 6 1 1 2 5 2v1l-7-1-20-8v-2l-6-1z" fill="#F28DA6"/>
<path transform="translate(498,554)" d="m0 0h9v1l-7 1 2 13 10 1-2 2h-10l-1-1-2-16z" fill="#D65A7C"/>
<path transform="translate(837,512)" d="m0 0h1l5 35-3-1-1-11-2-7-2-2h2l-2-8z" fill="#F28DA6"/>
<path transform="translate(841,566)" d="m0 0h7v1l-13 3-17 2-1 3v-6z" fill="#F28DA6"/>
<path transform="translate(971,742)" d="m0 0 21 1v1h-20v13h8v2h-8l-2-1v-15z" fill="#D65B7C"/>
<path transform="translate(849,547)" d="m0 0h14l2 10v6l-8 1h-9l2-2 5-1h9l-2-8v-5h-13z" fill="#D55879"/>
<path transform="translate(569,578)" d="m0 0 3 1 1 5-1 3v5l-1 2h-2l-2-5 1-10z" fill="#F187A1"/>
<path transform="translate(434,564)" d="m0 0 2 1 1 11 1 8-2 2v-2h-2v-9l-1-1v-8z" fill="#DD6889"/>
<path transform="translate(830,515)" d="m0 0h1l1 7 2 1v25h-1l-3-25z" fill="#F391A8"/>
<path transform="translate(829,643)" d="m0 0 3 4 1 14-4-1-1-5v-11z" fill="#D35576"/>
<path transform="translate(429,735)" d="m0 0h2l2 8-2 8-5 1h-7l1-2h9z" fill="#D35476"/>
<path transform="translate(684,691)" d="m0 0 2 3 4 29 3 2-5 1-4-28z" fill="#F395AB"/>
<path transform="translate(406,548)" d="m0 0h1l2 11v4l-6 1h-15l4-2 15-1z" fill="#D5587A"/>
<path transform="translate(417,862)" d="m0 0h2v2l5-1 3 1v-2l16 1 1 2-10 1-4-1h-14l-1-2z" fill="#DD6889"/>
<path transform="translate(886,519)" d="m0 0h1l2 18v6h-2l-1-2-1-17z" fill="#DD6889"/>
<path transform="translate(514,862)" d="m0 0 1 2 9-1 3 2-10 1-3-1-1 2-4-1-14-1 4-2h14z" fill="#DD6889"/>
<path transform="translate(524,556)" d="m0 0h1l1 13 5 1v1h-14l2-1 1-3 4 1-1-8z" fill="#DD6889"/>
<path transform="translate(977,553)" d="m0 0h3v16l-4-2 1-7-1-5z" fill="#F49AAF"/>
<path transform="translate(380,534)" d="m0 0 4 1 1 12-3 2-2-6z" fill="#DD6889"/>
<path transform="translate(1028,772)" d="m0 0 5 2v4l-5 1v2l-3-1 1-6h2z" fill="#DC6788"/>
<path transform="translate(373,643)" d="m0 0 2 3 1 4v10l-4-2v-14z" fill="#D35476"/>
<path transform="translate(17,572)" d="m0 0 2 4-3 4-3 1-3-4 2-4z" fill="#E2708F"/>
<path transform="translate(865,559)" d="m0 0 2 4v3h-19l4-2 5-1h8z" fill="#F290A8"/>
<path transform="translate(352,539)" d="m0 0h2l3 9 7 3v1h-6v8h-1l-2-10-3-8z" fill="#DD6888"/>
<path transform="translate(408,534)" d="m0 0 6 2-2 5 1 4h-3l-2-4z" fill="#F187A1"/>
<path transform="translate(864,528)" d="m0 0 4 3 2 4v4l-5 1-1-5z" fill="#F187A1"/>
<path transform="translate(537,862)" d="m0 0 7 1 14 1v1l-12 1-5-1-1 2v-2l-4 1-8-1 1-2 8 1z" fill="#DD6889"/>
<path transform="translate(577,462)" d="m0 0 3 1v16l-3-6z" fill="#D75D7E"/>
<path transform="translate(872,426)" d="m0 0 2 4 2 7v6l-3 2-2-17z" fill="#E37392"/>
<path transform="translate(813,559)" d="m0 0h2l1 8 11-2-1 2-9 1v5l-2-1z" fill="#D5587A"/>
<path transform="translate(379,504)" d="m0 0 2 1 2 18-3-4-2-9v-5z" fill="#F28DA5"/>
<path transform="translate(788,641)" d="m0 0h5l14 9-1 2-18-10z" fill="#F392A9"/>
<path transform="translate(1115,575)" d="m0 0 5 2v4l-5 1-3-2 1-4z" fill="#DD6889"/>
<path transform="translate(383,526)" d="m0 0h1l3 21-3-1-1-11-1-5z" fill="#F391A8"/>
<path transform="translate(841,566)" d="m0 0h7v1l-13 3h-7l4-3z" fill="#F393AA"/>
<path transform="translate(799,566)" d="m0 0 3 1 1 5-5 1-2-5z" fill="#DD6889"/>
<path transform="translate(841,557)" d="m0 0 2 4 9 3v1h-11l-1-1v-6z" fill="#D75C7E"/>
<path transform="translate(335,862)" d="m0 0 8 1 4-1-1 3h-18l1-2 6 1z" fill="#DC6687"/>
<path transform="translate(20,563)" d="m0 0 7 1 1 4-4-1-3 2v-2h-2z" fill="#ED819C"/>
<path transform="translate(1006,555)" d="m0 0 2 4-1 2 2 1-1 8-2 3z" fill="#DD6889"/>
<path transform="translate(878,463)" d="m0 0h1l1 5v7h-3v-11z" fill="#D65A7B"/>
<path transform="translate(1027,760)" d="m0 0 4 2v2h-2l-3 3h-3l1-5h2z" fill="#DD6889"/>
<path transform="translate(369,631)" d="m0 0 4 1v7l-3 1-2-6z" fill="#D45678"/>
<path transform="translate(807,517)" d="m0 0 3 1 1 9-3-1-2-8z" fill="#DC6685"/>
<path transform="translate(77,760)" d="m0 0h2l1 4h-5l-1 4-2-2v-3z" fill="#D65B7D"/>
<path transform="translate(980,555)" d="m0 0 2 1-1 15-5-1 1-3 3 2-1-3z" fill="#F187A1"/>
<path transform="translate(687,709)" d="m0 0h1l2 14 3 2-5 1-1-7z" fill="#F391A9"/>
<path transform="translate(549,554)" d="m0 0 3 1v5l2 3-3 3-1-1z" fill="#DD6889"/>
</svg>
