<?xml version="1.0" encoding="UTF-8"?>
<svg version="1.1" viewBox="0 0 900 900" width="1280" height="1280" xmlns="http://www.w3.org/2000/svg">
<path transform="translate(0)" d="m0 0h900v900h-900z" fill="#FDCC37"/>
<path transform="translate(540,466)" d="m0 0h29l2 1 1 111v34l62-1 15-3 11-6 9-8 7-10 5-10 2-7 1-13-2-14-5-12-7-10-4-5-10-7-9-4-9-2-34-1-1-1v-31l2-1 38 1 15 4 12 5 11 7 15 14 8 11 7 14 4 13 2 14v13l-3 16-4 12-7 14-11 14-13 11-19 10-14 4-7 1h-68v48l-5 1h-25l-2-1v-225z" fill="#FEFEFD"/>
<path transform="translate(539,209)" d="m0 0h102l17 4 12 5 12 8 10 9 7 7 9 15 6 17 2 8 1 9v14l-3 15-4 12-6 12-9 12-7 8-14 10-14 7-13 4-7 1h-37v-31l2-2h26l14-2 12-5 8-6 8-9 8-15 2-7 1-14-2-12-5-13-7-10-6-7-11-7-16-4-66-1 1 192-2 2h-29l-2-1z" fill="#FEFEFD"/>
<path transform="translate(395,466)" d="m0 0h62l2 2 25 87 16 56 14 50 8 27v4h-31l-3-6-9-31-22-77-19-66-9-31-2-11h-2l-3 10-15 53-44 154-2 5h-31l-1-4 5-15 14-49 29-101 16-56z" fill="#FEFEFD"/>
<path transform="translate(427,208)" d="m0 0 31 1 6 19 16 55 29 102 10 35 3 10v4h-31l-4-9-30-105-19-66-10-35-1-7h-2l-3 11-17 59-32 112-10 34-2 6-6 1-26-1 1-6 9-31 15-52 25-87 14-49z" fill="#FEFEFD"/>
<path transform="translate(247,466)" d="m0 0h40l57 1 1 2v29l-1 1h-64v193l-1 1-30-1-1-1-1-191-63-1-1-1v-30l1-1z" fill="#FEFEFD"/>
<path transform="translate(184,209)" d="m0 0h160l1 31-1 1h-64v193l-1 1h-18l-13-1-1-192-64-1v-31z" fill="#FEFEFD"/>
</svg>
