<?xml version="1.0" encoding="UTF-8"?>
<svg version="1.1" viewBox="0 0 1080 1080" width="3rem" height="3rem" xmlns="http://www.w3.org/2000/svg">
<path transform="translate(0)" d="m0 0h1080v1080h-1080z" fill="#04D067"/>
<path transform="translate(409,217)" d="m0 0h43l29 3 26 5 25 7 23 8 26 12 18 10 12 8 19 14 13 12 10 9 9 10 12 15 10 15 9 16 8 17 8 24 3 15-2 1h-29l-23 2-29 5-26 7-22 8-29 14-18 11-19 14-10 9-8 7-13 14-12 16-11 18-11 23-7 22-4 21-1 9v29l3 22 5 19v4h-33l-31-3-22-4-25-6h-12l-10 4-24 14-26 15-14 8h-6l-6-5-1-6 11-42 4-15-1-10-4-6-12-9-14-12-21-21-11-14-9-13-10-17-9-19-8-24-5-24-2-23v-12l2-22 5-25 7-21 8-18 12-21 14-19 9-10 7-8 10-10 22-18 18-12 21-12 21-10 24-9 25-7 24-5 23-3z" fill="#FDFEFE"/>
<path transform="translate(679,435)" d="m0 0h37l25 3 25 5 23 7 24 10 21 11 18 12 14 11 13 12 7 7 9 11 11 15 10 18 7 16 6 19 4 22 1 12v14l-2 19-4 19-7 20-9 19-14 21-9 11-9 10-9 9-11 9-10 8-3 4-1 3v7l12 44-1 8-4 3h-7l-52-30-10-4h-7l-30 7-21 3-13 1h-34l-21-2-23-4-22-6-20-7-18-8-20-11-12-8-12-9-10-9-8-7-13-14-12-16-11-19-7-15-7-22-3-14-2-19v-15l2-19 4-19 7-20 8-17 10-16 10-13 12-14 7-7 8-7 18-14 25-15 21-10 22-8 28-7 27-4z" fill="#FDFEFE"/>
<path transform="translate(519,341)" d="m0 0h13l11 4 6 4 7 7 5 10 2 8v9l-4 13-6 8-8 7-9 4-5 1h-11l-13-4-9-7-7-10-3-9v-15l4-11 7-9 10-7z" fill="#04D067"/>
<path transform="translate(329,341)" d="m0 0h13l11 4 9 6 8 11 3 10v13l-4 11-4 6-5 5-5 4-9 4-5 1h-11l-10-3-10-6-7-9-4-9-1-5v-12l4-11 4-6 4-5 10-6z" fill="#04D067"/>
<path transform="translate(768,539)" d="m0 0h15l12 6 7 8 4 10v14l-4 10-6 7-9 5-7 2h-10l-11-4-10-9-4-8-1-4v-12l3-9 7-9 8-5z" fill="#04D067"/>
<path transform="translate(610,539)" d="m0 0h14l10 4 8 7 5 10 1 4v12l-4 10-7 8-8 5-7 2h-11l-12-5-5-4-6-10-2-6v-13l4-10 7-8 9-5z" fill="#04D067"/>
</svg>
