<?xml version="1.0" encoding="UTF-8"?>
<svg version="1.1" viewBox="0 0 1040 1040" width="3rem" height="3rem" xmlns="http://www.w3.org/2000/svg">
<path transform="translate(0)" d="m0 0h1040v1040h-1040z" fill="#F7F7F7"/>
<path transform="translate(425,223)" d="m0 0h31l18 3 13 4 11 8 9 10 7 12 5 14 2 10 1 12v10l-3 19-8 25-1 4v9l2 5 7 3 10-1 31-9 49-14 25-6 21-3 14-1h16l22 2 21 7 16 9 10 8 9 9 10 15 6 15 3 12v15l-3 12-7 16-8 16-4 9-1 10 3 5 7 6 16 6 24 7 16 6 21 11 12 8 13 11 9 10 9 13 8 16 5 16 3 20v19l-3 20-4 17-7 21-8 18-10 19-10 15-10 14-13 16-12 13-13 13-8 7-14 11-11 8-10 7-20 12-16 9-26 13-26 11-28 10-28 9-44 11-37 7-30 4-41 4-18 1h-65l-37-3-31-4-31-6-31-8-19-6-26-9-28-12-17-8-22-12-17-10-18-12-17-13-14-12-8-7-17-17-9-11-10-13-11-17-11-21-7-18-6-22-3-18-1-10v-27l3-24 5-21 6-16 9-19 10-18 6-11 16-28 10-15 15-22 13-18 11-14 7-9 11-13 7-8 12-14 9-9 7-8 26-26 8-7 12-11 11-9 14-12 12-9 13-10 17-12 20-13 20-12 15-8 21-7 29-7 28-5z" fill="#D6291F"/>
<path transform="translate(428,463)" d="m0 0h51l22 2 32 5 26 6 20 6 25 10 25 12 21 13 13 10 11 9 11 11 7 8 11 15 10 17 8 20 5 23 1 16-1 18-5 23-8 22-8 15-10 15-11 14-11 12-16 16-11 9-15 11-18 12-23 13-27 13-30 11-30 9-31 7-25 4-30 3h-59l-30-3-24-4-25-6-20-6-28-11-19-9-23-14-16-12-15-14-7-7-11-14-9-14-8-15-7-21-3-14-1-9v-22l3-19 6-20 8-18 12-20 9-12 12-14 23-23 10-8 18-13 21-13 27-14 22-10 31-11 30-8 35-7 33-4z" fill="#F7F7F7"/>
<path transform="translate(387,551)" d="m0 0h29l25 3 25 6 19 7 19 10 11 8 13 11 9 11 9 14 7 14 6 21 2 17v11l-2 18-4 17-7 19-8 15-9 13-9 11-9 10-10 9-16 12-15 9-19 9-24 8-20 4-18 2h-17l-18-2-19-4-19-7-16-8-15-10-13-11-10-10-12-16-10-19-7-21-3-19v-17l3-21 6-20 6-13 10-18 10-13 12-13 11-9 10-8 15-9 16-8 24-8 14-3z" fill="#221C19"/>
<path transform="translate(749,99)" d="m0 0 25 1 26 3 31 6 24 7 25 10 19 9 18 11 17 12 11 10 8 7 12 11 8 9 12 16 9 15 10 18 10 23 9 27 6 26 4 23 2 23v26l-3 30-6 32-5 13-7 9-10 7-4 2-6 1h-14l-11-4-8-6-7-10-4-10-1-14 5-38 2-12v-27l-2-18-6-24-6-16-8-17-11-19-12-16-12-14-12-12-17-13-15-10-15-8-19-8-24-7-13-2h-35l-20 2h-26l-10-4-9-7-6-9-3-9v-17l5-13 9-10 10-6 10-4 12-3 8-1z" fill="#E17C20"/>
<path transform="translate(757,242)" d="m0 0h21l16 2 18 5 16 7 12 7 14 10 12 12 12 16 8 16 5 13 4 17 1 8v34l-2 18-5 13-9 10-9 6-8 3-10 1-13-4-5-4-6-10-4-16-1-8v-40l-4-12-7-11-5-6-11-8-13-5-10-2-24-2-16-4-10-5-10-9-4-8v-14l4-11 4-6 9-6 10-4 10-2z" fill="#E17C20"/>
<path transform="translate(337,667)" d="m0 0h17l15 3 16 8 9 9 6 11 2 8v14l-4 13-7 12-9 9-14 9-13 5-11 2h-11l-14-3-12-6-10-9-6-8-4-8-2-9v-12l3-12 6-11 8-9 12-9 13-5z" fill="#F7F7F7"/>
<path transform="translate(425,642)" d="m0 0h11l10 4 6 7 2 6-1 8-3 6-4 5-8 5-8 2-10-1-8-5-5-6-2-7 1-8 5-8 8-6z" fill="#F7F7F7"/>
</svg>
